# xmcd
#
# Track frame offsets:
#       150
#       18150
#       39713
#       57418
#       74676
#       87330
#       116034
#       138391
#       158069
#       169750
#       181746
#       203674
#
# Disc length: 3029 seconds
#
# Revision: 0
# Processed by: cddbd v1.5.1PL0 Copyright (c) Steve Scherf et al.
# Submitted via: CD-DA_X-Tractor v0.24
#
DISCID=a30bd30c
DTITLE=CG and The Hammer - Feels Like Home
DYEAR=2002
DGENRE=
TTITLE0=Evil Talk
TTITLE1=Airport Blues
TTITLE2=The New Funky Blues
TTITLE3=All Night Man
TTITLE4=Goin' Out Walking
TTITLE5=Bad Luck
TTITLE6=Boogie With Me
TTITLE7=Highway Blues
TTITLE8=Sugar, Sugar
TTITLE9=Me and My Cigar
TTITLE10=Feels Like Home
TTITLE11=Full Moon
EXTD=
EXTT0=
EXTT1=
EXTT2=
EXTT3=
EXTT4=
EXTT5=
EXTT6=
EXTT7=
EXTT8=
EXTT9=
EXTT10=
EXTT11=
PLAYORDER=
